<?xml version="1.0" encoding="utf-8"?>
<svg version="1.0" width="70.000000pt" height="50.000000pt" viewBox="0 0 1594.000000 1591.000000" preserveAspectRatio="xMidYMid meet" xmlns="http://www.w3.org/2000/svg">
<text x="1050" y="900" font-size="22rem" fill='#ffffff'>CIn</text>
  <g transform="translate(-100.000000,1591.000000) scale(0.1000000,-0.100000)" fill="#000000" stroke="none">
    <path d="M9670 13656 c-335 -61 -608 -204 -850 -446 -310 -310 -589 -773 -839 -1394 -176 -435 -321 -949 -321 -1137 0 -50 3 -60 26 -78 54 -42 272 -96 509 -126 474 -59 1038 -43 1439 41 428 91 927 304 1206 517 191 147 350 350 430 551 126 315 129 644 8 1014 -79 244 -206 457 -373 627 -200 204 -429 336 -705 407 -101 26 -136 30 -285 34 -114 2 -195 -1 -245 -10z" style="fill: rgba(255, 0, 0, 0.616);"/>
    <path d="M7185 8549 c-233 -28 -484 -99 -675 -190 -534 -255 -1547 -1046 -2905 -2268 -314 -282 -829 -758 -984 -907 l-112 -109 3 -319 3 -319 45 38 c77 65 290 227 420 321 553 399 1069 680 1460 793 500 146 842 34 1029 -336 17 -35 63 -156 102 -270 297 -873 663 -1505 1141 -1969 839 -814 1950 -959 3323 -434 1058 405 2332 1279 3436 2358 l187 182 -23 88 c-13 48 -47 178 -76 289 l-51 201 -222 -167 c-1127 -855 -1741 -1179 -2330 -1231 -364 -32 -655 75 -900 330 -120 125 -219 274 -316 475 -164 337 -278 708 -440 1430 -67 298 -103 433 -162 605 -255 739 -687 1202 -1269 1360 -42 11 -114 27 -160 36 -102 19 -413 27 -524 13z" style="fill: rgba(255, 0, 0, 0.616);"/>
  </g>
</svg>