<?xml version="1.0" encoding="utf-8"?>
<!-- Designed by Vexels.com - 2016 All Rights Reserved - https://vexels.com/terms-and-conditions/  -->

<svg version="1.0" id="Capa_1" xmlns="http://www.w3.org/2000/svg" xmlns:xlink="http://www.w3.org/1999/xlink" x="0px" y="0px"
	 width="1200px" height="1200px" viewBox="0 0 1200 1200" enable-background="new 0 0 1200 1200" xml:space="preserve">
<g>
	<g>
		<g>
			<path d="M140.293,314.97c95.823-23.864,203.03-33.392,295.714,7.645c31.995,14.166,60.942,34.172,85.73,58.832
				c8.962,8.915,22.815-4.934,13.851-13.851c-36.562-36.372-81.522-62.473-130.898-77.159
				c-48.51-14.428-100.042-17.513-150.324-14.01c-40.241,2.804-80.169,9.914-119.281,19.655
				C122.833,299.133,128.033,318.024,140.293,314.97L140.293,314.97z"/>
		</g>
	</g>
	<g>
		<g>
			<path d="M517.981,382.978c34.845,19.823,63.388,49.133,87.83,80.91c27.831,36.184,51.069,75.731,73.428,115.446
				c21.722,38.582,42.459,77.723,65.025,115.826c20.831,35.173,43.359,69.765,70.719,100.267
				c8.451,9.422,22.259-4.479,13.851-13.851c-28.359-31.616-51.106-67.926-72.502-104.54
				c-23.575-40.344-45.317-81.724-68.515-122.282c-21.785-38.087-44.917-75.502-72.232-109.912
				c-24.497-30.86-53.274-59.183-87.718-78.778C516.872,359.808,507.005,376.734,517.981,382.978L517.981,382.978z"/>
		</g>
	</g>
	<g>
		<g>
			<path d="M399.131,885.439c13.665-27.027,38.971-45.21,66.339-56.756c34.245-14.447,71.536-20.758,107.678-23.865
				c39.665-3.41,79.659-2.835,119.339,0.017c34.68,2.492,65.86,6.352,99.71,12.878c5.216,1.006,10.418,2.084,15.605,3.233
				c12.309,2.726,17.539-16.158,5.207-18.889c-31.507-6.978-63.598-11.478-95.692-14.679c-39.108-3.9-78.522-5.447-117.802-3.814
				c-38.861,1.616-78.201,6.296-115.5,17.682c-31.814,9.712-63.663,25.152-85.799,50.667c-6.251,7.205-11.696,15.125-16.001,23.639
				C376.532,886.795,393.43,896.714,399.131,885.439L399.131,885.439z"/>
		</g>
	</g>
	<g>
		<g>
			<path d="M94.394,356.464c12.874-18.877,33.95-32.352,53.99-42.481c11.276-5.699,1.357-22.597-9.887-16.914
				c-23.229,11.741-46.177,27.749-61.017,49.508C70.341,357.045,87.324,366.831,94.394,356.464L94.394,356.464z"/>
		</g>
	</g>
	<g>
		<g>
			<path d="M65.002,348.373c15.776,40.939,35.459,80.6,54.36,120.148c29.935,62.637,60.975,124.763,93.28,186.212
				c30.168,57.384,61.091,114.7,96.278,169.199c11.89,18.415,24.294,36.902,38.973,53.242c8.272,9.208,20.036,21.388,33.706,18.56
				c0.058-0.014,0.116-0.027,0.174-0.041c12.293-2.894,7.079-21.782-5.207-18.889c-1.092,0.257,3.247,0.041,0.202-0.174
				c3.52,0.249,1.376,0.272-0.301-0.311c-2.087-0.725,2.467,1.121,0.767,0.335c-0.48-0.222-0.947-0.471-1.41-0.726
				c-1.128-0.621-2.201-1.341-3.247-2.09c-2.12-1.519,1.807,1.452,0.128,0.119c-0.559-0.444-1.104-0.903-1.647-1.367
				c-1.289-1.102-2.528-2.263-3.745-3.444c-2.751-2.672-5.337-5.513-7.85-8.408c-1.378-1.588-2.723-3.203-4.054-4.83
				c-0.704-0.861-1.4-1.73-2.093-2.6c-0.508-0.638-3.248-4.163-1.325-1.671c-3.222-4.177-6.334-8.437-9.391-12.736
				c-7.181-10.1-13.996-20.458-20.648-30.912c-35.29-55.457-66.475-113.586-96.934-171.794
				c-31.947-61.052-62.657-122.764-92.28-184.976c-10.633-22.331-21.12-44.734-31.297-67.278
				c-3.737-8.277-7.426-16.576-11.02-24.916c-0.751-1.743-1.496-3.489-2.236-5.237c1.416,3.346,0.122,0.286-0.202-0.489
				c-0.319-0.762-0.635-1.525-0.95-2.288c-1.076-2.604-2.13-5.217-3.143-7.845c-1.918-4.977-6.514-8.363-12.048-6.841
				C67.081,337.635,63.08,343.385,65.002,348.373L65.002,348.373z"/>
		</g>
	</g>
	<g>
		<g>
			<path d="M522.115,371.475c78.169-55.365,157.281-111.933,248.398-144.017c49.971-17.596,102.236-27.736,154.888-32.883
				c5.312-0.519,9.794-4.062,9.794-9.794c0-4.945-4.471-10.315-9.794-9.794c-52.101,5.094-103.738,14.612-153.432,31.292
				c-43.989,14.765-85.869,35.091-125.784,58.647c-46.286,27.316-90.132,58.596-133.957,89.636c-4.347,3.079-6.39,8.49-3.514,13.4
				C511.236,372.264,517.751,374.566,522.115,371.475L522.115,371.475z"/>
		</g>
	</g>
	<g>
		<g>
			<path d="M836.105,799.196c4.584-6.831,7.05-9.859,12.537-16.224c5.671-6.578,11.693-12.85,17.854-18.968
				c14.526-14.425,30.026-27.862,45.829-40.862c36.178-29.763,74.42-57.026,113.276-83.16
				c38.247-25.725,77.308-50.392,117.478-73.014c11.004-6.197,1.133-23.12-9.887-16.914
				c-77.944,43.895-153.26,94.193-223.223,149.934c-18.395,14.655-36.369,29.898-53.302,46.231
				c-13.679,13.193-26.859,27.271-37.477,43.092C812.129,799.831,829.106,809.624,836.105,799.196L836.105,799.196z"/>
		</g>
	</g>
	<g>
		<g>
			<path d="M916.944,201.22c21.109,32.133,39.191,66.29,57.491,100.062c23.175,42.77,46.024,85.719,69.988,128.055
				c27.314,48.254,55.647,96.749,90.635,139.933c3.366,4.154,10.373,3.478,13.851,0c4.068-4.068,3.358-9.707,0-13.851
				c-26.658-32.903-49.74-70.872-71.447-107.937c-24.836-42.407-48.129-85.698-71.454-128.947
				c-23.09-42.813-45.413-86.502-72.15-127.202C926.955,180.825,909.986,190.628,916.944,201.22L916.944,201.22z"/>
		</g>
	</g>
	<g>
		<g>
			<path d="M826.442,813.554c-33.292-9.454-68.089-13.717-102.592-15.334c-39.735-1.862-79.592,0.44-118.929,6.246
				c-39.226,5.79-77.91,15.725-114.453,31.226c-33.077,14.03-64.622,33.201-89.336,59.573c-17.89,19.09-31.451,41.894-39.062,66.953
				c-3.681,12.119,15.229,17.26,18.889,5.207c4.715-15.524,11.598-29.291,21.573-43.269c8.592-12.04,21.498-24.914,34.265-35.125
				c1.67-1.336,1.769-1.4,3.808-2.925c1.685-1.26,3.396-2.486,5.114-3.7c3.767-2.662,7.627-5.192,11.535-7.642
				c7.696-4.826,15.666-9.209,23.784-13.281c16.721-8.389,33.322-14.771,51.5-20.537c73.416-23.288,152.974-28.97,229.588-20.047
				c18.36,2.138,39.745,6.046,59.109,11.545C833.412,835.901,838.573,816.999,826.442,813.554L826.442,813.554z"/>
		</g>
	</g>
	<g>
		<g>
			<path d="M63.751,381.395c-20.446,9.692-16.36,36.093-11.041,53.61c10.115,33.309,28.245,64.555,45.217,94.719
				c25.123,44.653,51.817,88.415,77.909,132.503c31.191,52.705,61.545,105.849,90.553,159.789
				c25.845,48.059,53.109,95.86,85.177,140.086c3.127,4.313,8.452,6.413,13.4,3.514c4.265-2.499,6.654-9.069,3.514-13.401
				c-33.305-45.932-61.439-95.689-88.166-145.657c-28.968-54.159-59.767-107.303-91.071-160.138
				c-25.831-43.599-52.208-86.906-76.957-131.135c-9.427-16.846-18.591-33.863-26.886-51.299
				c-6.188-13.007-10.964-23.651-14.996-38.313c-0.588-2.138-1.099-4.296-1.552-6.466c-0.21-1.009-0.392-2.023-0.565-3.039
				c-0.099-0.585-0.185-1.173-0.27-1.761c0.442,3.057,0.143,0.991,0.072,0.33c-0.191-1.764-0.276-3.537-0.279-5.31
				c-0.001-0.818,0.037-1.636,0.088-2.452c0.198-3.167-0.357,1.744,0.035-0.599c0.234-1.398,0.612-2.768,1.092-4.101
				c0.385-1.072-1.218,2.513-0.019,0.15c0.351-0.691,0.768-1.346,1.208-1.983c0.617-0.894-1.833,2.11-0.079,0.208
				c0.435-0.472,0.914-0.901,1.401-1.317c0.786-0.673-2.272,1.56-0.07,0.146c0.692-0.444,1.427-0.818,2.17-1.17
				c4.823-2.286,6.035-9.097,3.514-13.4C74.283,380.011,68.575,379.108,63.751,381.395L63.751,381.395z"/>
		</g>
	</g>
	<g>
		<g>
			<path d="M830.764,829.924c14.394-11.611,27.256-25.278,40.458-38.187c16.384-16.021,32.777-32.145,50.39-46.828
				c19.904-16.592,42.087-33.052,65.73-46.198c23.911-13.294,49.044-24.194,73.844-35.681c20.134-9.325,40.04-19.175,58.899-30.903
				c4.221-2.625,6.672-8.96,3.514-13.4c-4.444-6.247-4.356-11.298-5.159-18.455c-0.991-8.843-4.626-16.259-11.699-21.853
				c-4.183-3.308-9.75-4.101-13.851,0c-3.445,3.445-4.195,10.534,0,13.851c5.627,4.45,5.995,7.463,6.438,13.667
				c0.589,8.245,2.505,15.856,7.357,22.676c1.171-4.467,2.342-8.934,3.514-13.4c-46.47,28.899-99.016,46.052-145.916,74.189
				c-42.6,25.557-78.514,60.695-113.817,95.239c-10.915,10.681-21.65,21.83-33.553,31.431c-4.161,3.357-3.472,10.379,0,13.851
				C820.987,833.998,826.613,833.273,830.764,829.924L830.764,829.924z"/>
		</g>
	</g>
	<g>
		<g>
			<path d="M862.946,831.77c22.528-36.588,57.495-66.419,92.941-90.503c36.764-24.98,80.244-47.543,124.334-53.124
				c7.762-0.983,15.601-1.326,23.418-1.008c5.338,0.217,9.794-4.62,9.794-9.794c0-6.87-2.502-12.519-5.349-18.724
				c-3.746-8.162-8.189-15.98-11.89-24.169c-2.199-4.866-9.161-5.997-13.401-3.514c-4.959,2.905-5.712,8.535-3.514,13.401
				c3.071,6.797,6.544,13.384,9.893,20.045c1.447,2.878,2.817,5.785,3.979,8.789c1.36,3.516,0.693-0.59,0.693,1.331
				c0,0.947,0,1.893,0,2.84c3.265-3.265,6.53-6.53,9.794-9.794c-44.783-1.824-89.35,16.797-127.679,38.261
				c-40.885,22.896-79.537,52.772-109.848,88.657c-7.308,8.651-14.139,17.771-20.079,27.418
				C839.389,832.671,856.338,842.503,862.946,831.77L862.946,831.77z"/>
		</g>
	</g>
	<g>
		<g>
			<path d="M376.091,956.416c8.242,8.444,14.746,18.389,22.994,26.828c8.841,9.046,22.682-4.815,13.851-13.851
				c-8.248-8.439-14.752-18.384-22.994-26.828C381.107,933.514,367.266,947.375,376.091,956.416L376.091,956.416z"/>
		</g>
	</g>
	<g>
		<g>
			<path d="M414.468,977.433c27.457-40.91,67.166-70.667,112.172-89.948c22.557-9.664,46.534-16.25,70.565-21.018
				c12.1-2.401,24.305-4.218,36.566-5.558c11.462-1.254,19.517-2.258,31.094-2.848c32.588-1.661,65.283,1.222,97.886,1.144
				c16.28-0.039,32.544-0.827,48.642-3.352c12.669-1.987,25.853-5.575,36.548-12.901c10.35-7.09,0.566-24.075-9.887-16.914
				c-7.026,4.813-12.223,6.553-20.85,8.72c-9.596,2.41-18.072,3.303-27.874,4.001c-22.751,1.62-45.646,0.751-68.418,0.075
				c-21.285-0.631-42.705-1.553-63.963,0.153c-24.017,1.928-48.525,5.029-72.367,10.118
				c-74.557,15.916-143.912,54.198-187.029,118.441C390.492,978.069,407.469,987.862,414.468,977.433L414.468,977.433z"/>
		</g>
	</g>
	<g>
		<g>
			<path d="M657.202,366.509c73.385-34.815,143.717-75.558,214.665-114.989c4.559-2.534,0.481-9.519-4.082-6.984
				c-70.948,39.431-141.28,80.173-214.666,114.989C648.41,361.76,652.517,368.732,657.202,366.509L657.202,366.509z"/>
		</g>
	</g>
	<g>
		<g>
			<path d="M695.547,389.51c55.168-39.303,116.795-72,183.024-87.753c5.073-1.207,2.921-9.005-2.15-7.799
				c-66.854,15.902-129.265,48.892-184.956,88.568C687.256,385.525,691.289,392.543,695.547,389.51L695.547,389.51z"/>
		</g>
	</g>
	<g>
		<g>
			<path d="M703.203,424.007c62.237-42.563,134.783-65.507,203.175-95.83c4.76-2.11,0.641-9.077-4.082-6.984
				c-68.392,30.323-140.935,53.265-203.175,95.83C694.845,419.948,698.885,426.96,703.203,424.007L703.203,424.007z"/>
		</g>
	</g>
	<g>
		<g>
			<path d="M714.707,454.676c62.831-46.794,142.424-59.824,210.818-95.83c4.616-2.43,0.528-9.411-4.082-6.984
				c-68.401,36.009-147.96,49.016-210.818,95.83C706.494,450.769,710.519,457.795,714.707,454.676L714.707,454.676z"/>
		</g>
	</g>
	<g>
		<g>
			<path d="M753.038,493.008c54.073-38.477,115.614-62.375,179.189-80.09c5.017-1.398,2.884-9.201-2.15-7.799
				c-64.187,17.885-126.525,42.057-181.121,80.905C744.746,489.02,748.779,496.039,753.038,493.008L753.038,493.008z"/>
		</g>
	</g>
	<g>
		<g>
			<path d="M776.851,530.707c52.578-52.232,123.995-72.602,193.708-90.954c5.04-1.327,2.899-9.128-2.15-7.799
				c-71.098,18.717-143.679,39.789-197.277,93.034C767.428,528.668,773.148,534.385,776.851,530.707L776.851,530.707z"/>
		</g>
	</g>
	<g>
		<g>
			<path d="M800.489,564.386c18.958-27.113,46.268-47.894,74.727-64.191c28.847-16.519,61.153-29.203,94.268-33.47
				c5.098-0.657,5.162-8.753,0-8.088c-34.7,4.471-68.017,17.407-98.35,34.574c-29.742,16.832-57.912,38.895-77.629,67.093
				C790.509,564.59,797.524,568.626,800.489,564.386L800.489,564.386z"/>
		</g>
	</g>
	<g>
		<g>
			<path d="M811.36,615.033c50.568-50.532,105.43-102.159,174.536-125.452c4.915-1.657,2.806-9.47-2.15-7.799
				c-70.503,23.764-126.49,75.954-178.105,127.532C801.949,613.004,807.668,618.723,811.36,615.033L811.36,615.033z"/>
		</g>
	</g>
	<g>
		<g>
			<path d="M842.643,664.05c43.884-61.723,113.498-94.451,168.045-144.84c3.839-3.546-1.895-9.251-5.719-5.719
				c-27.328,25.245-58.503,45.673-88.269,67.833c-30.407,22.637-58.957,47.584-81.04,78.644
				C832.63,664.229,839.648,668.262,842.643,664.05L842.643,664.05z"/>
		</g>
	</g>
	<g>
		<g>
			<path d="M249.938,401.421c71.259-11.836,144.977-18.66,216.336-3.835c5.089,1.057,7.255-6.738,2.15-7.799
				c-72.874-15.139-147.864-8.252-220.637,3.835C242.652,394.475,244.838,402.268,249.938,401.421L249.938,401.421z"/>
		</g>
	</g>
	<g>
		<g>
			<path d="M275.679,428.4c69.15,3.691,137.9-7.567,206.996-7.676c5.215-0.008,5.216-8.096,0-8.088
				c-69.096,0.109-137.845,11.367-206.996,7.676C270.464,420.034,270.491,428.123,275.679,428.4L275.679,428.4z"/>
		</g>
	</g>
	<g>
		<g>
			<path d="M249.938,489.581c88.952-15.546,179.057-41.703,269.993-26.829c5.1,0.834,7.287-6.959,2.15-7.799
				c-92.547-15.137-183.746,11.004-274.293,26.829C242.657,482.679,244.839,490.473,249.938,489.581L249.938,489.581z"/>
		</g>
	</g>
	<g>
		<g>
			<path d="M303.595,524.078c76.283-27.85,160.331-26.683,240.418-26.684c5.216,0,5.216-8.088,0-8.088
				c-80.75,0-165.655-1.108-242.569,26.973C296.587,518.052,298.684,525.87,303.595,524.078L303.595,524.078z"/>
		</g>
	</g>
	<g>
		<g>
			<path d="M341.939,573.906c75.087-18.674,152.077-26.669,228.902-34.352c5.139-0.514,5.189-8.607,0-8.088
				c-77.532,7.754-155.275,15.796-231.052,34.641C334.73,567.366,336.877,575.165,341.939,573.906L341.939,573.906z"/>
		</g>
	</g>
	<g>
		<g>
			<path d="M377.403,615.666c29.014-16.389,62.797-22.872,95.527-26.853c33.772-4.108,67.807-4.992,101.734-7.092
				c5.18-0.321,5.211-8.41,0-8.088c-34.464,2.134-69.003,3.111-103.31,7.284c-33.658,4.094-68.206,10.917-98.033,27.766
				C368.781,611.247,372.856,618.234,377.403,615.666L377.403,615.666z"/>
		</g>
	</g>
	<g>
		<g>
			<path d="M403.252,662.068c74.159-27.112,154.574-30.489,232.75-30.519c5.215-0.002,5.216-8.09,0-8.088
				c-78.828,0.03-160.124,3.471-234.9,30.808C396.245,656.045,398.342,663.863,403.252,662.068L403.252,662.068z"/>
		</g>
	</g>
	<g>
		<g>
			<path d="M410.933,711.902c58.99-19.639,120.202-37.996,182.915-38.187c5.215-0.016,5.216-8.104,0-8.088
				c-63.437,0.194-125.391,18.61-185.065,38.476C403.86,705.742,405.97,713.554,410.933,711.902L410.933,711.902z"/>
		</g>
	</g>
	<g>
		<g>
			<path d="M426.246,746.4c55.026-11.05,109.219-26.468,164.83-34.498c5.146-0.743,2.949-8.535-2.15-7.799
				c-55.612,8.03-109.805,23.447-164.83,34.498C418.985,739.627,421.154,747.422,426.246,746.4L426.246,746.4z"/>
		</g>
	</g>
	<g>
		<g>
			<path d="M854.674,851.141c-110.993-18.252-223.544,10.759-321.117,63.978c-46.93,25.597-90.716,57.19-130.222,93.177
				c5.128,0.661,10.255,1.321,15.383,1.982c-7.286-9.522-15.637-17.577-24.853-25.212c-8.964-7.427-18.091-14.606-25.775-23.409
				c-8.322-9.533-22.119,4.38-13.851,13.851c14.352,16.441,34.241,27.243,47.565,44.657c3.913,5.114,10.296,6.616,15.383,1.982
				c79.719-72.615,178.424-127.521,284.658-148.721c48.423-9.663,98.833-11.419,147.623-3.396
				c5.263,0.865,10.522-1.291,12.048-6.841C862.816,858.458,859.949,852.008,854.674,851.141L854.674,851.141z"/>
		</g>
	</g>
	<g>
		<g>
			<path d="M862.983,870.434c30.765-42.652,60.257-87.065,105.026-116.437c23.483-15.407,51.174-24.882,77.78-33.277
				c27.487-8.673,55.475-15.634,83.168-23.597c4.309-1.239,8.608-2.515,12.899-3.815c4.221-1.28,7.142-4.995,7.191-9.444
				c-0.029-0.58,0.001-1.156,0.091-1.728c-0.446,1.648-0.891,3.296-1.337,4.943c0.072-0.14,0.144-0.28,0.216-0.421
				c-1.171,1.171-2.342,2.342-3.514,3.514c0.14-0.072,0.28-0.144,0.421-0.216c-1.648,0.446-3.296,0.891-4.943,1.337
				c0.572-0.09,1.148-0.12,1.728-0.091c6.901-0.076,10.425-6.158,9.444-12.398c-2.947-18.759-12.728-35.825-23.092-51.429
				c-6.952-10.468-23.926-0.67-16.914,9.887c9.538,14.36,18.404,29.477,21.118,46.75c3.148-4.133,6.296-8.265,9.444-12.398
				c-7.545,0.083-12.167,4.705-12.25,12.25c2.397-3.148,4.794-6.296,7.191-9.444c-55.029,16.682-112.198,27.957-163.794,54.278
				c-49.074,25.034-82.888,70.248-114.095,114.09c-4.22,5.928-8.433,11.86-12.69,17.762c-3.13,4.339-0.76,10.897,3.514,13.4
				C854.523,876.841,859.867,874.754,862.983,870.434L862.983,870.434z"/>
		</g>
	</g>
</g>
</svg>
